<svg width="127" height="127" viewBox="0 0 127 127" fill="none" xmlns="http://www.w3.org/2000/svg">
<g filter="url(#filter0_i_28_957)">
<circle cx="63.5" cy="63.5" r="63.5" fill="#DFDFDF"/>
<mask id="mask0_28_957" style="mask-type:alpha" maskUnits="userSpaceOnUse" x="0" y="0" width="127" height="127">
<circle cx="63.5" cy="63.5" r="63.5" fill="#CF6F39"/>
</mask>
<g mask="url(#mask0_28_957)">
<line x1="32" y1="59.3431" x2="52.3431" y2="39" stroke="#1477E7" stroke-width="8" stroke-linecap="round"/>
<line x1="32" y1="33.3431" x2="52.3431" y2="13" stroke="#1477E7" stroke-width="8" stroke-linecap="round"/>
<line x1="-9" y1="85.3431" x2="11.3431" y2="65" stroke="#1477E7" stroke-width="8" stroke-linecap="round"/>
<line x1="-9" y1="111.343" x2="11.3431" y2="91" stroke="#1477E7" stroke-width="8" stroke-linecap="round"/>
<line x1="-9" y1="138.757" x2="12.7574" y2="117" stroke="#1477E7" stroke-width="6" stroke-linecap="round"/>
<line x1="-9" y1="59.3431" x2="11.3431" y2="39" stroke="#1477E7" stroke-width="8" stroke-linecap="round"/>
<line x1="-9" y1="34.7574" x2="12.7574" y2="13" stroke="#1477E7" stroke-width="6" stroke-linecap="round"/>
<line x1="-9" y1="8.75736" x2="12.7574" y2="-13" stroke="#1477E7" stroke-width="6" stroke-linecap="round"/>
<line x1="73" y1="59.3431" x2="93.3431" y2="39" stroke="#1477E7" stroke-width="8" stroke-linecap="round"/>
<line x1="114" y1="59.3431" x2="134.343" y2="39" stroke="#1477E7" stroke-width="8" stroke-linecap="round"/>
<line x1="73" y1="33.3431" x2="93.3431" y2="13" stroke="#1477E7" stroke-width="8" stroke-linecap="round"/>
<line x1="114" y1="33.3431" x2="134.343" y2="13" stroke="#1477E7" stroke-width="8" stroke-linecap="round"/>
<line x1="73" y1="7.34315" x2="93.3431" y2="-13" stroke="#1477E7" stroke-width="8" stroke-linecap="round"/>
<line x1="114" y1="8.75736" x2="135.757" y2="-13" stroke="#1477E7" stroke-width="6" stroke-linecap="round"/>
<line x1="32" y1="85.3431" x2="52.3431" y2="65" stroke="#1477E7" stroke-width="8" stroke-linecap="round"/>
<line x1="32" y1="111.343" x2="52.3431" y2="91" stroke="#1477E7" stroke-width="8" stroke-linecap="round"/>
<line x1="32" y1="137.343" x2="52.3431" y2="117" stroke="#1477E7" stroke-width="8" stroke-linecap="round"/>
<line x1="73" y1="85.3431" x2="93.3431" y2="65" stroke="#1477E7" stroke-width="8" stroke-linecap="round"/>
<line x1="114" y1="85.3431" x2="134.343" y2="65" stroke="#1477E7" stroke-width="8" stroke-linecap="round"/>
<line x1="73" y1="111.343" x2="93.3431" y2="91" stroke="#1477E7" stroke-width="8" stroke-linecap="round"/>
<line x1="114" y1="112.757" x2="135.757" y2="91" stroke="#1477E7" stroke-width="6" stroke-linecap="round"/>
<line x1="114" y1="138.757" x2="135.757" y2="117" stroke="#1477E7" stroke-width="6" stroke-linecap="round"/>
</g>
</g>
<defs>
<filter id="filter0_i_28_957" x="0" y="0" width="127" height="131" filterUnits="userSpaceOnUse" color-interpolation-filters="sRGB">
<feFlood flood-opacity="0" result="BackgroundImageFix"/>
<feBlend mode="normal" in="SourceGraphic" in2="BackgroundImageFix" result="shape"/>
<feColorMatrix in="SourceAlpha" type="matrix" values="0 0 0 0 0 0 0 0 0 0 0 0 0 0 0 0 0 0 127 0" result="hardAlpha"/>
<feOffset dy="4"/>
<feGaussianBlur stdDeviation="2"/>
<feComposite in2="hardAlpha" operator="arithmetic" k2="-1" k3="1"/>
<feColorMatrix type="matrix" values="0 0 0 0 0 0 0 0 0 0 0 0 0 0 0 0 0 0 0.25 0"/>
<feBlend mode="normal" in2="shape" result="effect1_innerShadow_28_957"/>
</filter>
</defs>
</svg>
